PathFileType	4	(X/Y/Z)	/Users/itak/Documents/Research/Walk-IL/dataset/trc/00022_00004.trc
DataRate	CameraRate	NumFrames	NumMarkers	Units	OrigDataRate	OrigDataStartFrame	OrigNumFrames
100.000000	100.000000	4	53	mm	100.000000	0	846
Frame#	Time	RPSI			LPSI			L3			STRN			T10			C7			CLAV			RBAK			LBAK			LSHO			LUPA			LAEL			LAOL			LWTS			LWPS			LFRA			LIFD			LHPS			LHTS			RSHO			RUPA			RAEL			RAOL			RWTS			RWPS			RFRA			RIFD			RHTS			RHPS			RBHD			LFHD			RFHD			LBHD			LHIP			RHIP			RASI			LASI			LKNE			LTHI			LANK			LTIP			LTOE			LMT1			LMT5			LHEE			RKNE			RTHI			RANK			RTIP			RTOE			RMT1			RMT5			RHEE			
		X1	Y1	Z1	X2	Y2	Z2	X3	Y3	Z3	X4	Y4	Z4	X5	Y5	Z5	X6	Y6	Z6	X7	Y7	Z7	X8	Y8	Z8	X9	Y9	Z9	X10	Y10	Z10	X11	Y11	Z11	X12	Y12	Z12	X13	Y13	Z13	X14	Y14	Z14	X15	Y15	Z15	X16	Y16	Z16	X17	Y17	Z17	X18	Y18	Z18	X19	Y19	Z19	X20	Y20	Z20	X21	Y21	Z21	X22	Y22	Z22	X23	Y23	Z23	X24	Y24	Z24	X25	Y25	Z25	X26	Y26	Z26	X27	Y27	Z27	X28	Y28	Z28	X29	Y29	Z29	X30	Y30	Z30	X31	Y31	Z31	X32	Y32	Z32	X33	Y33	Z33	X34	Y34	Z34	X35	Y35	Z35	X36	Y36	Z36	X37	Y37	Z37	X38	Y38	Z38	X39	Y39	Z39	X40	Y40	Z40	X41	Y41	Z41	X42	Y42	Z42	X43	Y43	Z43	X44	Y44	Z44	X45	Y45	Z45	X46	Y46	Z46	X47	Y47	Z47	X48	Y48	Z48	X49	Y49	Z49	X50	Y50	Z50	X51	Y51	Z51	X52	Y52	Z52	X53	Y53	Z53	

1	0	-15.39227199554443	1073.575073242188	1157.010009765625	-31.84237670898438	1063.829833984375	993.0674438476562	-33.09683609008789	1124.477661132812	1066.519409179688	180.0029449462891	1324.071044921875	1057.9921875	-67.72722625732422	1267.523071289062	1063.851684570312	-28.45340347290039	1536.79931640625	1052.606811523438	132.4627685546875	1448.340698242188	1054.678466796875	-74.09601593017578	1398.26708984375	1134.74853515625	-47.31573867797852	1494.349243164062	956.2088623046875	51.94224166870117	1504.826782226562	880.4874877929688	25.0985279083252	1378.876098632812	803.2749633789062	35.49829864501953	1160.255126953125	782.34326171875	-18.75365829467773	1147.567260742188	872.7777099609375	128.7345581054688	908.4647827148438	840.1777954101562	51.77379989624023	892.1021118164062	798.6275634765625	51.2083740234375	1044.205200195312	777.6102905273438	151.7272796630859	721.9413452148438	865.5234985351562	83.97992706298828	802.0551147460938	801.8900756835938	150.1008758544922	811.853271484375	829.9031372070312	51.54917526245117	1525.344604492188	1222.847778320312	41.7989501953125	1457.055541992188	1297.0859375	15.12010765075684	1185.681396484375	1319.858642578125	11.0737771987915	1159.264404296875	1223.749633789062	146.2079315185547	924.53271484375	1287.651977539062	82.71160888671875	909.8936157226562	1352.067016601562	29.67053031921387	1109.892822265625	1334.935913085938	171.25146484375	736.881103515625	1280.622680664062	182.2090454101562	815.6559448242188	1302.727661132812	126.8276214599609	811.5098266601562	1352.637451171875	99.77993011474609	1711.791137695312	1146.849609375	142.3170776367188	1735.92822265625	941.8460083007812	210.2956390380859	1734.51953125	1012.950988769531	-4.736702919006348	1716.147216796875	1047.22607421875	59.90984725952148	963.3093872070312	874.72607421875	104.0049667358398	959.4014892578125	1245.312744140625	202.64013671875	995.5336303710938	1164.530883789062	178.126708984375	1011.840881347656	931.0228271484375	103.5885848999023	518.3167724609375	921.5919799804688	80.35294342041016	654.9262084960938	886.1089477539062	2.031377792358398	41.96788787841797	918.5675659179688	18.41661262512207	289.0208740234375	902.3303833007812	222.0064392089844	37.93169784545898	981.9089965820312	163.2479400634766	46.0313835144043	999.0586547851562	126.2035980224609	40.78789520263672	899.8712158203125	-67.4061279296875	48.84609985351562	971.09619140625	94.97209167480469	524.2384033203125	1190.353637695312	123.8318405151367	791.9619140625	1238.026489257812	-32.13014602661133	45.65119934082031	1155.420776367188	63.92714309692383	402.5614929199219	1188.038818359375	202.8004150390625	44.46953582763672	1134.9384765625	142.986572265625	50.61826324462891	1099.298461914062	113.5663299560547	41.96315002441406	1191.902709960938	-83.11602020263672	48.10016250610352	1106.132934570312	
2	0.01	-15.4495153427124	1073.580078125	1157.044189453125	-31.88590431213379	1063.831176757812	993.1265869140625	-33.153076171875	1124.502197265625	1066.570678710938	180.0021667480469	1324.053100585938	1058.056518554688	-67.75620269775391	1267.546264648438	1063.90478515625	-28.43353652954102	1536.799926757812	1052.677978515625	132.4734344482422	1448.334594726562	1054.74462890625	-74.10262298583984	1398.289428710938	1134.813842773438	-47.30990600585938	1494.37646484375	956.271728515625	51.95705413818359	1504.840087890625	880.5577392578125	25.0955696105957	1378.884765625	803.322509765625	35.50630187988281	1160.262084960938	782.3817138671875	-18.74622917175293	1147.570068359375	872.823486328125	128.7654571533203	908.476806640625	840.22119140625	51.80288314819336	892.1211547851562	798.6455688476562	51.23704528808594	1044.215454101562	777.6461791992188	151.7889251708984	721.9569702148438	865.5499877929688	84.01220703125	802.0690307617188	801.9239501953125	150.1449432373047	811.8707885742188	829.9368896484375	51.55893707275391	1525.342163085938	1222.906616210938	41.82975769042969	1457.074584960938	1297.144897460938	15.08797264099121	1185.698486328125	1319.926513671875	11.03319072723389	1159.27099609375	1223.807006835938	146.1410522460938	924.5111083984375	1287.704711914062	82.59008026123047	909.877685546875	1352.038696289062	29.63555908203125	1109.893310546875	1334.998901367188	171.0730895996094	736.8370361328125	1280.63916015625	182.0831604003906	815.6275024414062	1302.798706054688	126.7694396972656	811.5365600585938	1352.682983398438	99.83830261230469	1711.813110351562	1146.909790039062	142.3688812255859	1735.91015625	941.8965454101562	210.3486633300781	1734.504272460938	1012.995483398438	-4.682154178619385	1716.201049804688	1047.277587890625	59.8641242980957	963.3068237304688	874.7733154296875	103.9767379760742	959.3994140625	1245.34912109375	202.6057739257812	995.5446166992188	1164.553100585938	178.0690765380859	1011.844421386719	931.05126953125	103.5967559814453	518.3196411132812	921.6113891601562	80.35337829589844	654.9309692382812	886.1184692382812	2.036589384078979	41.96199798583984	918.5695190429688	18.43659019470215	289.0189514160156	902.331298828125	222.0078430175781	37.92900466918945	981.9121704101562	163.239990234375	46.02745056152344	999.0562133789062	126.2020645141602	40.77993774414062	899.8648681640625	-67.41421508789062	48.84796142578125	971.09033203125	94.99126434326172	524.260009765625	1190.37890625	123.8187561035156	791.9623413085938	1238.081787109375	-32.12426376342773	45.65878295898438	1155.421875	63.98001480102539	402.5541076660156	1188.041015625	202.7982788085938	44.47871398925781	1134.922241210938	143.0251007080078	50.67023086547852	1099.334716796875	113.5709075927734	41.95006561279297	1191.906616210938	-83.11856842041016	48.09646987915039	1106.133178710938	
3	0.02	-15.51895618438721	1073.587646484375	1157.088012695312	-31.93826293945312	1063.833984375	993.2005004882812	-33.22037124633789	1124.53564453125	1066.6416015625	180.0011596679688	1324.030517578125	1058.142333984375	-67.79189300537109	1267.578125	1063.971435546875	-28.40307807922363	1536.804077148438	1052.769409179688	132.4884490966797	1448.328247070312	1054.832397460938	-74.10997009277344	1398.317260742188	1134.8984375	-47.29753112792969	1494.411987304688	956.3532104492188	51.9785041809082	1504.854614257812	880.6466674804688	25.09199523925781	1378.89404296875	803.3892822265625	35.51564407348633	1160.273559570312	782.4347534179688	-18.74697875976562	1147.576171875	872.8773803710938	128.8038940429688	908.4949340820312	840.278076171875	51.84128570556641	892.1415405273438	798.6807250976562	51.27025985717773	1044.231201171875	777.6940307617188	151.8631134033203	721.9776000976562	865.5863037109375	84.0545654296875	802.0852661132812	801.9725952148438	150.1965179443359	811.8930053710938	829.9807739257812	51.57442092895508	1525.3408203125	1222.984619140625	41.86691284179688	1457.096069335938	1297.230834960938	15.04475879669189	1185.721313476562	1320.016479492188	10.98465347290039	1159.2783203125	1223.882568359375	146.0446929931641	924.4818115234375	1287.7783203125	82.44577789306641	909.8650512695312	1352.021606445312	29.59312629699707	1109.8935546875	1335.075805664062	170.8431396484375	736.7667846679688	1280.680419921875	181.9178314208984	815.5939331054688	1302.888549804688	126.6726531982422	811.5571899414062	1352.7470703125	99.91841125488281	1711.841552734375	1146.987426757812	142.4405670166016	1735.883178710938	941.9609985351562	210.42333984375	1734.484375	1013.058532714844	-4.609622478485107	1716.266723632812	1047.347900390625	59.80623245239258	963.3040161132812	874.834228515625	103.9470520019531	959.398193359375	1245.401123046875	202.5664215087891	995.5559692382812	1164.588500976562	177.997802734375	1011.850219726562	931.0913696289062	103.6029357910156	518.323974609375	921.63623046875	80.35134887695312	654.9375610351562	886.1349487304688	2.041226863861084	41.95662307739258	918.571044921875	18.45554542541504	289.0184631347656	902.3355712890625	222.0094299316406	37.92623138427734	981.915771484375	163.2317504882812	46.0234375	999.0538330078125	126.2012100219727	40.77014541625977	899.8571166992188	-67.42327880859375	48.84963989257812	971.0863037109375	95.01217651367188	524.2847900390625	1190.414306640625	123.8028564453125	791.962646484375	1238.148559570312	-32.11924362182617	45.66629409790039	1155.422119140625	64.03534698486328	402.5456848144531	1188.048583984375	202.7965393066406	44.4783821105957	1134.921264648438	143.0576171875	50.71466064453125	1099.366455078125	113.5741577148438	41.93214797973633	1191.91748046875	-83.11924743652344	48.09440994262695	1106.13427734375	
4	0.03	-15.59693717956543	1073.598266601562	1157.141235351562	-31.9952392578125	1063.8388671875	993.286376953125	-33.29370498657227	1124.575927734375	1066.729858398438	180.0010681152344	1324.004516601562	1058.248779296875	-67.832275390625	1267.618530273438	1064.048461914062	-28.36034774780273	1536.81298828125	1052.879028320312	132.5081329345703	1448.322021484375	1054.941528320312	-74.11699676513672	1398.349487304688	1134.99951171875	-47.27598190307617	1494.455200195312	956.4515380859375	52.00759506225586	1504.869140625	880.7512817382812	25.09018516540527	1378.904296875	803.4757080078125	35.52538681030273	1160.290283203125	782.5023803710938	-18.75382614135742	1147.586547851562	872.9401245117188	128.8484497070312	908.5191040039062	840.3477172851562	51.88786315917969	892.1622924804688	798.735595703125	51.30523681640625	1044.252685546875	777.7531127929688	151.9454193115234	722.003173828125	865.6322631835938	84.10514831542969	802.1030883789062	802.0359497070312	150.2510375976562	811.9195556640625	830.0343627929688	51.59799575805664	1525.341552734375	1223.081298828125	41.90771484375	1457.117797851562	1297.345092773438	14.99110984802246	1185.748657226562	1320.127319335938	10.930983543396	1159.286499023438	1223.975341796875	145.9181365966797	924.445556640625	1287.872192382812	82.28776550292969	909.857666015625	1352.022583007812	29.54522514343262	1109.893432617188	1335.162963867188	170.5744018554688	736.6735229492188	1280.757934570312	181.7171630859375	815.5574340820312	1302.993774414062	126.5307388305664	811.5647583007812	1352.828979492188	100.0197143554688	1711.875366210938	1147.080200195312	142.5339813232422	1735.846435546875	942.0383911132812	210.5196380615234	1734.460693359375	1013.140686035156	-4.517922401428223	1716.339721679688	1047.437377929688	59.73922348022461	963.301513671875	874.9069213867188	103.9195861816406	959.3980102539062	1245.469482421875	202.5256500244141	995.565673828125	1164.638793945312	177.9171142578125	1011.858642578125	931.1436157226562	103.6038055419922	518.3300170898438	921.6661376953125	80.34515380859375	654.9459228515625	886.1597900390625	2.044432401657104	41.95266723632812	918.5717163085938	18.47008514404297	289.0201416015625	902.344482421875	222.0108184814453	37.92411422729492	981.9188842773438	163.2245330810547	46.01935577392578	999.0518798828125	126.2020645141602	40.75841903686523	899.8487548828125	-67.43270111083984	48.85091400146484	971.085205078125	95.03168487548828	524.3101806640625	1190.459594726562	123.784538269043	791.9625854492188	1238.223388671875	-32.11591720581055	45.67293167114258	1155.422119140625	64.08509063720703	402.5368041992188	1188.063354492188	202.7955017089844	44.46905899047852	1134.934936523438	143.0807037353516	50.74711227416992	1099.390869140625	113.5752716064453	41.90975952148438	1191.936279296875	-83.11731719970703	48.09432983398438	1106.13671875	
